# xmcd CD database file
#
# Track frame offsets:
#	150
#	14558
#	31817
#	41683
#	53454
#	68483
#	81114
#	99141
#	107515
#	120667
#	132433
#	146393
#	159195
#	174012
#	190929
#
# Disc length: 2701 seconds
#
# Revision: 0
# Processed by: cddbd v1.5.2PL0 Copyright (c) Steve Scherf et al.
# Submitted via: CDex 1.51
#
DISCID=ac0a8b0f
DTITLE=Sarah Savoy and The Francadians - Allons Rock'n'Roll
DYEAR=2011
DGENRE=Country
TTITLE0=Johnny Can't Dance
TTITLE1=Honky Tonky Angels
TTITLE2=High-Heel Two-Step
TTITLE3=C'est Si Triste Sans Lui
TTITLE4=Little Bitty Girl
TTITLE5=Lucilla
TTITLE6=La Bouteille
TTITLE7=Tall, Tall Trees
TTITLE8=Blues De Roulailleuse
TTITLE9=J'ai Quitée De La Maison
TTITLE10=Folsom Prison Blues
TTITLE11=Let Me Talk To Your Heart
TTITLE12=Mean, Mean Man
TTITLE13=Pine Grove Blues
TTITLE14=Fume, Fume, Fume
EXTD=YEAR: 2011
EXTT0=
EXTT1=
EXTT2=
EXTT3=
EXTT4=
EXTT5=
EXTT6=
EXTT7=
EXTT8=
EXTT9=
EXTT10=
EXTT11=
EXTT12=
EXTT13=
EXTT14=
PLAYORDER=
